<?xml version="1.0" encoding="utf-8"?>
<!-- Generator: Adobe Illustrator 16.2.0, SVG Export Plug-In . SVG Version: 6.00 Build 0)  -->
<!DOCTYPE svg PUBLIC "-//W3C//DTD SVG 1.1//EN" "http://www.w3.org/Graphics/SVG/1.1/DTD/svg11.dtd">
<svg version="1.1" id="Layer_1" xmlns="http://www.w3.org/2000/svg" xmlns:xlink="http://www.w3.org/1999/xlink" x="0px" y="0px"
	 width="500px" height="400px" viewBox="0 0 500 400" enable-background="new 0 0 500 400" xml:space="preserve">
<g>
	<g>
		<path fill="#662D91" d="M176.656,200.38"/>
		<g>
			<g enable-background="new    ">
				<g enable-background="new    ">
					<defs>
						<path id="SVGID_1_" enable-background="new    " d="M262.802,44.662v-2.823c16.523,0,30.639,5.882,42.316,17.645
							c11.709,11.742,17.576,25.933,17.576,42.519c0,16.26-5.867,30.271-17.576,42.014c-11.678,11.763-25.793,17.637-42.316,17.637
							c-16.199,0-30.148-5.875-41.841-17.637c-11.708-11.742-17.555-25.754-17.555-42.014c0-16.586,5.847-30.777,17.555-42.519
							c11.693-11.763,25.642-17.645,41.841-17.645V44.662c-14.358,0.27-29.221,6.539-39.842,16.814
							c-10.227,10.656-16.454,25.753-16.73,40.526c0.276,14.434,6.497,29.351,16.73,40.021c10.621,10.276,25.483,16.53,39.842,16.8
							c14.696-0.277,29.725-6.524,40.324-16.8c10.24-10.669,16.468-25.587,16.745-40.021c-0.277-14.773-6.519-29.871-16.745-40.526
							C292.526,51.208,277.498,44.938,262.802,44.662z"/>
					</defs>
					<clipPath id="SVGID_2_">
						<use xlink:href="#SVGID_1_"  overflow="visible"/>
					</clipPath>
					<g clip-path="url(#SVGID_2_)" enable-background="new    ">
						<path fill="#4B166C" d="M262.802,44.662v-2.823c9.755,0,18.667,2.048,26.734,6.152l-1.341,3.017
							C280.265,47.077,271.478,44.828,262.802,44.662"/>
						<path fill="#491469" d="M288.195,51.007l1.341-3.017c3.004,1.521,5.868,3.32,8.636,5.403l-1.563,2.657
							C293.965,54.155,291.142,52.467,288.195,51.007"/>
						<path fill="#481267" d="M296.608,56.051l1.563-2.657c2.407,1.82,4.733,3.847,6.946,6.089c2.658,2.657,5.011,5.438,7.059,8.338
							l-2.74,1.508c-1.881-2.809-3.999-5.445-6.311-7.853C301.106,59.518,298.919,57.705,296.608,56.051"/>
						<path fill="#491469" d="M309.437,69.329l2.74-1.508c7.002,9.942,10.518,21.346,10.518,34.181c0,0.754,0,1.501-0.027,2.249
							l-2.879-0.235c0.042-0.672,0.068-1.343,0.083-2.013C319.649,90.571,315.872,78.947,309.437,69.329"/>
						<path fill="#4B166C" d="M319.788,104.016l2.879,0.235c-0.084,2.006-0.236,3.985-0.485,5.923l-2.975-0.72
							C319.498,107.642,319.691,105.828,319.788,104.016"/>
						<path fill="#4D186E" d="M319.207,109.454l2.975,0.72c-0.263,1.938-0.595,3.84-1.038,5.702l-3.044-1.024
							C318.557,113.066,318.93,111.26,319.207,109.454"/>
						<path fill="#4F1970" d="M318.1,114.851l3.044,1.024c-0.498,2.2-1.135,4.345-1.91,6.441l-3.07-1.225
							C316.911,119.038,317.574,116.954,318.1,114.851"/>
						<path fill="#511B73" d="M316.163,121.092l3.07,1.225c-1.079,2.982-2.435,5.868-4.026,8.649l-2.947-1.391
							C313.768,126.843,315.084,124.005,316.163,121.092"/>
						<path fill="#521C75" d="M312.26,129.576l2.947,1.391c-2.38,4.145-5.327,8.075-8.843,11.784l-2.159-1.89
							C307.306,137.443,310.018,133.637,312.26,129.576"/>
						<path fill="#541E77" d="M304.205,140.86l2.159,1.89c-0.4,0.421-0.815,0.851-1.246,1.266c-0.761,0.775-1.55,1.529-2.325,2.249
							l-1.824-2.263c0.746-0.643,1.466-1.3,2.157-1.979C303.486,141.643,303.846,141.255,304.205,140.86"/>
						<path fill="#551F7A" d="M300.969,144.002l1.824,2.263c-1.064,0.968-2.157,1.896-3.236,2.774l-1.634-2.56
							C298.976,145.69,299.985,144.86,300.969,144.002"/>
						<path fill="#57217C" d="M297.923,146.479l1.634,2.56c-1.066,0.837-2.132,1.64-3.226,2.402l-1.494-2.768
							C295.89,147.974,296.927,147.24,297.923,146.479"/>
						<path fill="#59227E" d="M294.837,148.673l1.494,2.768c-1.079,0.747-2.172,1.459-3.293,2.131l-1.425-2.92
							C292.719,150.022,293.785,149.365,294.837,148.673"/>
						<path fill="#5A2380" d="M291.613,150.651l1.425,2.92c-1.148,0.685-2.298,1.322-3.473,1.923l-1.344-3.023
							C289.371,151.904,290.505,151.295,291.613,150.651"/>
						<path fill="#5C2582" d="M288.222,152.472l1.344,3.023c-1.219,0.616-2.45,1.191-3.711,1.716l-1.271-3.072
							C285.801,153.62,287.018,153.067,288.222,152.472"/>
						<path fill="#5D2684" d="M284.583,154.139l1.271,3.072c-1.355,0.567-2.725,1.08-4.123,1.537l-1.189-3.086
							C281.897,155.204,283.254,154.692,284.583,154.139"/>
						<path fill="#5F2787" d="M280.542,155.661l1.189,3.086c-1.563,0.511-3.154,0.955-4.761,1.328l-1.023-3.051
							C277.498,156.63,279.02,156.18,280.542,155.661"/>
						<path fill="#602889" d="M275.947,157.024l1.023,3.051c-1.881,0.437-3.791,0.782-5.729,1.038l-0.732-2.968
							C272.321,157.855,274.147,157.481,275.947,157.024"/>
						<path fill="#62298B" d="M270.509,158.146l0.732,2.968c-2.075,0.27-4.178,0.436-6.337,0.506l-0.208-2.865
							C266.635,158.65,268.586,158.449,270.509,158.146"/>
						<path fill="#642B8D" d="M264.696,158.754l0.208,2.865c-0.693,0.021-1.396,0.034-2.103,0.034c-0.415,0-0.805-0.007-1.212-0.014
							l0.132-2.844c0.358,0.015,0.719,0.021,1.08,0.028C263.437,158.816,264.06,158.789,264.696,158.754"/>
						<path fill="#662D91" d="M261.722,158.795l-0.132,2.844c-0.672-0.014-1.337-0.035-1.993-0.07l0.332-2.878
							C260.523,158.74,261.126,158.768,261.722,158.795"/>
						<path fill="#73439A" d="M259.929,158.692l-0.332,2.878c-0.727-0.034-1.445-0.083-2.158-0.138l0.519-2.92
							C258.613,158.581,259.272,158.644,259.929,158.692"/>
						<path fill="#794C9E" d="M257.957,158.512l-0.519,2.92c-0.67-0.055-1.335-0.124-1.993-0.2l0.671-2.955
							C256.732,158.366,257.35,158.443,257.957,158.512"/>
						<path fill="#7D53A2" d="M256.116,158.276l-0.671,2.955c-0.629-0.076-1.246-0.16-1.86-0.249l0.796-2.982
							C254.954,158.104,255.535,158.193,256.116,158.276"/>
						<path fill="#8158A5" d="M254.381,158l-0.796,2.982c-0.61-0.09-1.212-0.194-1.807-0.298l0.899-3.01
							C253.245,157.792,253.813,157.896,254.381,158"/>
						<path fill="#845EA7" d="M252.678,157.674l-0.899,3.01c-0.602-0.111-1.197-0.228-1.785-0.359l0.989-3.031
							C251.544,157.433,252.11,157.557,252.678,157.674"/>
						<path fill="#8762AA" d="M250.982,157.294l-0.989,3.031c-0.602-0.125-1.203-0.263-1.799-0.415l1.065-3.052
							C249.835,157.01,250.409,157.156,250.982,157.294"/>
						<path fill="#8A66AC" d="M249.259,156.858l-1.065,3.052c-0.608-0.153-1.225-0.319-1.827-0.492l1.129-3.065
							C248.084,156.533,248.671,156.699,249.259,156.858"/>
						<path fill="#8D6AAE" d="M247.496,156.353l-1.129,3.065c-0.635-0.181-1.272-0.374-1.902-0.582l1.183-3.079
							C246.264,155.965,246.88,156.167,247.496,156.353"/>
						<path fill="#8F6DB0" d="M245.648,155.758l-1.183,3.079c-0.699-0.228-1.383-0.463-2.068-0.72l1.245-3.079
							C244.305,155.294,244.977,155.53,245.648,155.758"/>
						<path fill="#9271B2" d="M243.641,155.039l-1.245,3.079c-0.782-0.291-1.557-0.602-2.332-0.927l1.294-3.065
							C242.112,154.443,242.874,154.748,243.641,155.039"/>
						<path fill="#9474B4" d="M241.359,154.125l-1.294,3.065c-0.942-0.395-1.869-0.823-2.789-1.273l1.342-3.031
							C239.525,153.323,240.431,153.737,241.359,154.125"/>
						<path fill="#9777B5" d="M238.618,152.886l-1.342,3.031c-1.494-0.741-2.961-1.542-4.407-2.422l1.425-2.906
							C235.705,151.406,237.151,152.174,238.618,152.886"/>
						<path fill="#997AB7" d="M234.293,150.59l-1.425,2.906c-1.979-1.204-3.91-2.546-5.785-4.021l1.605-2.595
							C230.481,148.216,232.355,149.455,234.293,150.59"/>
						<path fill="#9777B5" d="M228.689,146.88l-1.605,2.595c-2.007-1.57-3.945-3.293-5.833-5.162l1.979-2.035
							C224.945,143.919,226.772,145.455,228.689,146.88"/>
						<path fill="#9474B4" d="M223.23,142.279l-1.979,2.035c-0.097-0.097-0.194-0.194-0.29-0.297
							c-0.042-0.035-0.076-0.076-0.118-0.11l2.02-1.986c0.035,0.035,0.063,0.069,0.097,0.104
							C223.05,142.113,223.139,142.196,223.23,142.279"/>
						<path fill="#9777B5" d="M222.863,141.919l-2.02,1.986c-0.838-0.845-1.646-1.703-2.422-2.574l2.304-1.786
							C221.417,140.362,222.13,141.151,222.863,141.919"/>
						<path fill="#997AB7" d="M220.725,139.546l-2.304,1.786c-0.809-0.899-1.578-1.813-2.318-2.733l2.546-1.626
							C219.313,137.852,220.005,138.709,220.725,139.546"/>
						<path fill="#9B7DB9" d="M218.648,136.972l-2.546,1.626c-0.968-1.204-1.875-2.429-2.726-3.674l2.782-1.488
							C216.947,134.647,217.777,135.823,218.648,136.972"/>
						<path fill="#9D80BA" d="M216.158,133.436l-2.782,1.488c-1.542-2.242-2.899-4.546-4.083-6.926l3.024-1.342
							C213.453,128.994,214.74,131.264,216.158,133.436"/>
						<path fill="#9B7DB9" d="M212.318,126.656l-3.024,1.342c-0.63-1.267-1.204-2.554-1.737-3.861l3.073-1.267
							C211.156,124.15,211.716,125.417,212.318,126.656"/>
						<path fill="#997AB7" d="M210.63,122.871l-3.073,1.267c-0.353-0.865-0.678-1.744-0.982-2.623l3.078-1.211
							C209.958,121.168,210.284,122.02,210.63,122.871"/>
						<path fill="#9777B5" d="M209.653,120.304l-3.078,1.211c-0.25-0.72-0.484-1.446-0.706-2.173l3.072-1.148
							C209.169,118.899,209.405,119.605,209.653,120.304"/>
						<path fill="#9474B4" d="M208.941,118.193l-3.072,1.148c-0.194-0.644-0.375-1.287-0.547-1.937l3.064-1.086
							C208.562,116.948,208.748,117.571,208.941,118.193"/>
						<path fill="#9271B2" d="M208.387,116.318l-3.064,1.086c-0.159-0.608-0.311-1.231-0.449-1.847l3.045-1.01
							C208.062,115.135,208.222,115.73,208.387,116.318"/>
						<path fill="#8F6DB0" d="M207.918,114.547l-3.045,1.01c-0.132-0.595-0.264-1.197-0.374-1.799l3.016-0.927
							C207.641,113.405,207.772,113.972,207.918,114.547"/>
						<path fill="#8D6AAE" d="M207.516,112.831l-3.016,0.927c-0.111-0.567-0.215-1.142-0.312-1.723l2.997-0.837
							C207.288,111.744,207.398,112.284,207.516,112.831"/>
						<path fill="#8A66AC" d="M207.184,111.198l-2.997,0.837c-0.09-0.574-0.173-1.155-0.249-1.736l2.968-0.727
							C206.99,110.112,207.087,110.658,207.184,111.198"/>
						<path fill="#8762AA" d="M206.907,109.572l-2.968,0.727c-0.083-0.589-0.146-1.177-0.208-1.771l2.941-0.602
							C206.74,108.472,206.816,109.018,206.907,109.572"/>
						<path fill="#845EA7" d="M206.672,107.925l-2.941,0.602c-0.062-0.602-0.118-1.211-0.159-1.827l2.906-0.457
							C206.533,106.804,206.596,107.365,206.672,107.925"/>
						<path fill="#8158A5" d="M206.478,106.244l-2.906,0.457c-0.049-0.651-0.083-1.308-0.11-1.973l2.871-0.284
							C206.367,105.04,206.416,105.642,206.478,106.244"/>
						<path fill="#7D53A2" d="M206.333,104.444l-2.871,0.284c-0.029-0.574-0.042-1.155-0.05-1.744l2.838-0.104
							C206.271,103.4,206.298,103.925,206.333,104.444"/>
						<path fill="#794C9E" d="M206.25,102.88l-2.838,0.104c-0.007-0.325-0.007-0.65-0.007-0.982c0-0.837,0.015-1.667,0.042-2.492
							l2.872,0.249c-0.047,0.755-0.076,1.495-0.089,2.243C206.235,102.293,206.242,102.59,206.25,102.88"/>
						<path fill="#73439A" d="M206.318,99.76l-2.872-0.249c0.076-2.145,0.257-4.249,0.534-6.304l2.974,0.741
							C206.645,95.885,206.429,97.823,206.318,99.76"/>
						<path fill="#662D91" d="M206.955,93.948l-2.974-0.741c0.241-1.778,0.56-3.528,0.947-5.244l3.044,1.017
							C207.564,90.626,207.226,92.288,206.955,93.948"/>
						<path fill="#642B8D" d="M207.972,88.979l-3.044-1.017c0.318-1.398,0.684-2.782,1.107-4.145l3.079,1.155
							C208.692,86.303,208.312,87.638,207.972,88.979"/>
						<path fill="#62298B" d="M209.114,84.974l-3.079-1.155c0.374-1.217,0.788-2.421,1.245-3.612l3.08,1.245
							C209.91,82.614,209.495,83.791,209.114,84.974"/>
						<path fill="#602889" d="M210.359,81.452l-3.08-1.245c0.423-1.094,0.879-2.173,1.364-3.246l3.052,1.308
							C211.225,79.314,210.774,80.379,210.359,81.452"/>
						<path fill="#5F2787" d="M211.695,78.269l-3.052-1.308c0.47-1.024,0.977-2.041,1.508-3.045l2.99,1.364
							C212.636,76.262,212.152,77.259,211.695,78.269"/>
						<path fill="#5D2684" d="M213.141,75.28l-2.99-1.364c0.526-0.975,1.081-1.943,1.662-2.898l2.898,1.418
							C214.165,73.37,213.646,74.318,213.141,75.28"/>
						<path fill="#5C2582" d="M214.711,72.436l-2.898-1.418c0.595-0.968,1.218-1.917,1.868-2.858l2.761,1.495
							C215.84,70.561,215.266,71.495,214.711,72.436"/>
						<path fill="#5A2380" d="M216.441,69.654l-2.761-1.495c0.671-0.961,1.371-1.91,2.104-2.844l2.581,1.599
							C217.701,67.807,217.057,68.721,216.441,69.654"/>
						<path fill="#59227E" d="M218.365,66.915l-2.581-1.599c0.774-0.997,1.591-1.972,2.442-2.926l2.325,1.764
							C219.798,65.046,219.064,65.974,218.365,66.915"/>
						<path fill="#57217C" d="M220.552,64.153l-2.325-1.764c0.789-0.893,1.613-1.772,2.464-2.637l2.034,1.972
							C221.977,62.513,221.258,63.323,220.552,64.153"/>
						<path fill="#551F7A" d="M222.724,61.725l-2.034-1.972c0.09-0.091,0.179-0.18,0.27-0.27c2.395-2.415,4.892-4.574,7.479-6.49
							l1.55,2.684c-2.498,1.751-4.85,3.688-7.029,5.799C222.883,61.559,222.8,61.643,222.724,61.725"/>
						<path fill="#541E77" d="M229.989,55.677l-1.55-2.684c2.803-2.083,5.722-3.869,8.747-5.37l1.343,3.031
							C235.56,52.093,232.688,53.775,229.989,55.677"/>
						<path fill="#521C75" d="M238.529,50.654l-1.343-3.031c2.172-1.073,4.4-2,6.69-2.774l1.204,3.079
							C242.853,48.71,240.666,49.616,238.529,50.654"/>
						<path fill="#511B73" d="M245.081,47.928l-1.204-3.079c1.827-0.623,3.694-1.142,5.598-1.571l1.01,3.037
							C248.671,46.766,246.866,47.305,245.081,47.928"/>
						<path fill="#4F1970" d="M250.484,46.315l-1.01-3.037c1.695-0.387,3.412-0.692,5.168-0.92l0.728,2.968
							C253.737,45.583,252.104,45.915,250.484,46.315"/>
						<path fill="#4D186E" d="M255.37,45.326l-0.728-2.968c1.751-0.229,3.529-0.38,5.342-0.463l0.29,2.878
							C258.643,44.883,257.002,45.063,255.37,45.326"/>
						<path fill="#4B166C" d="M260.274,44.773l-0.29-2.878c0.928-0.035,1.875-0.056,2.817-0.056v2.823
							C261.957,44.676,261.12,44.71,260.274,44.773"/>
					</g>
				</g>
				<g>
					<path fill="#5B2481" d="M262.802,44.662c14.696,0.276,29.725,6.545,40.324,16.814c10.227,10.656,16.468,25.753,16.745,40.526
						c-0.277,14.434-6.505,29.351-16.745,40.021c-10.6,10.276-25.628,16.523-40.324,16.8c-14.358-0.27-29.221-6.524-39.842-16.8
						c-10.234-10.669-16.454-25.587-16.73-40.021c0.276-14.773,6.503-29.871,16.73-40.526
						C233.581,51.201,248.443,44.932,262.802,44.662z"/>
				</g>
			</g>
		</g>
		<path fill="#662D91" d="M318.765,189.469c0.165,0.015,0.331,0.021,0.483,0.056C319.096,189.49,318.93,189.483,318.765,189.469z"/>
		<path fill="#662D91" d="M319.814,189.677c0.112,0.035,0.236,0.069,0.36,0.118C320.051,189.746,319.927,189.711,319.814,189.677z"
			/>
		<path fill="#551F7A" d="M320.508,189.953c-0.112-0.055-0.222-0.11-0.333-0.159c-0.124-0.049-0.248-0.083-0.36-0.118
			c-0.191-0.063-0.373-0.119-0.566-0.152c-0.152-0.035-0.318-0.041-0.483-0.056c-0.112-0.006-0.237-0.035-0.361-0.035h-0.026
			c-0.028,0-0.07-0.007-0.098-0.007c-0.346,0-0.679,0.035-1.011,0.104c-0.083,0.014-0.179,0.055-0.275,0.076
			c-8.623,2.401-17.797,3.625-27.567,3.625c-24.106,0-44.905-7.646-62.342-22.938c-8.186-7.161-14.441-14.974-18.786-23.428
			c-0.457-0.893-0.9-1.8-1.315-2.706c-0.546-1.183-1.052-2.38-1.522-3.591c-0.789-2.034-2.056-1.252-2.056-0.297s0,2.373,0,2.373
			v5.044v205.296c0,2.85,2.318,5.175,5.176,5.175h109.588c2.865,0,5.175-2.325,5.175-5.175V199.031v-3.369v-0.955
			C323.344,192.604,322.182,190.804,320.508,189.953z"/>
		<path fill="#662D91" d="M318.515,194.153c-0.111-0.056-0.221-0.111-0.332-0.159c-0.109-0.042-0.234-0.076-0.359-0.111
			c-0.166-0.055-0.36-0.11-0.539-0.145c-0.152-0.027-0.306-0.035-0.457-0.048c-0.111-0.007-0.235-0.035-0.36-0.035
			c0,0-0.014,0-0.028,0c-0.027,0-0.055-0.006-0.082-0.006c-0.333,0-0.665,0.034-0.969,0.097c-0.097,0.02-0.181,0.055-0.277,0.076
			c-8.316,2.283-17.173,3.453-26.598,3.453c-23.276,0-43.335-7.279-60.156-21.845c-7.894-6.822-13.935-14.26-18.129-22.308
			c-0.442-0.851-0.864-1.709-1.265-2.573c-0.526-1.128-1.011-2.27-1.466-3.426c-0.762-1.931-1.986-1.184-1.986-0.276
			c0,0.906,0,2.255,0,2.255v4.802v195.483c0,2.728,2.233,4.928,4.995,4.928h105.741c2.767,0,4.996-2.2,4.996-4.928V202.795v-3.21
			v-0.906C321.242,196.672,320.121,194.956,318.515,194.153z"/>
	</g>
</g>
</svg>
